<svg width="600" height="647" viewBox="0 0 600 647" fill="none" xmlns="http://www.w3.org/2000/svg">
<path d="M189.754 89H493.09L466.581 124.16H189.754V89Z" fill="#171717"/>
<path d="M460.271 89H145L172.553 124.16H460.271V89Z" fill="#171717"/>
<path d="M503.637 132.937L575 430.728L534.931 412.975L469.805 141.208L503.637 132.937Z" fill="#171717"/>
<path d="M567.279 398.508L493.108 89.0001L465.758 124.321L533.447 406.78L567.279 398.508Z" fill="#171717"/>
<path d="M411.245 559H107.909L134.419 523.84H411.245V559Z" fill="#171717"/>
<path d="M140.729 559H456L428.448 523.84H140.729V559Z" fill="#171717"/>
<path d="M97.3633 515.064L26 217.272L66.0686 235.025L131.195 506.792L97.3633 515.064Z" fill="#171717"/>
<path d="M33.7212 249.492L107.892 559L135.242 523.679L67.5532 241.22L33.7212 249.492Z" fill="#171717"/>
<path d="M286.542 391.376C271.709 388.595 265.682 374.572 265.682 366.46V349.077V332.694C265.682 332.141 265.235 331.694 264.682 331.694H207C206.448 331.694 206 332.141 206 332.694V380.873C206 380.922 206.004 380.972 206.011 381.021C217.65 459.17 314.367 457.426 351.44 437.152C381.107 420.928 396.057 391.376 394.318 375.731V269.535C394.318 268.982 393.871 268.535 393.318 268.535H329.849C329.294 268.535 328.845 268.967 328.848 269.522C329.044 297.315 329.421 353.486 329.421 363.563C329.421 373.648 324.132 381.92 321.4 384.904C321.338 384.971 321.273 385.024 321.195 385.071C315.699 388.367 301.273 394.138 286.542 391.376Z" fill="#171717"/>
<path d="M257.808 200.483C257.441 199.816 257.923 199 258.684 199H393.898C394.451 199 394.898 199.448 394.898 200V254.785C394.898 255.338 394.451 255.785 393.898 255.785H288.872C288.507 255.785 288.172 255.587 287.996 255.268L257.808 200.483Z" fill="#171717"/>
</svg>
